<svg width="53" height="47" viewBox="0 0 53 47" fill="none" xmlns="http://www.w3.org/2000/svg">
<path d="M13.4075 0.0377714C12.1506 1.25701 10.8936 3.77092 10.8936 3.77092H25.3569C25.3569 3.77092 27.8708 0.502844 28.6082 0.0419613C21.6699 -0.0460253 13.4075 0.0377714 13.4075 0.0377714Z" fill="#988BE3"/>
<path d="M8.79873 7.11859L7.12279 10.8894H21.0414L23.0442 7.11859H8.79873Z" fill="#988BE3"/>
<path d="M5.4468 14.2456H19.6923L15.5024 18.4354L1.67594 18.0164C1.67594 18.0164 5.02781 15.9215 5.4468 14.2456Z" fill="#988BE3"/>
<path d="M1.90735e-05 21.7829L2.09494 25.5538H16.3823L14.2455 21.7829H1.90735e-05Z" fill="#988BE3"/>
<path d="M4.18991 28.9058L6.28483 32.6766H20.5722L18.4354 28.9058H4.18991Z" fill="#988BE3"/>
<path d="M8.37975 36.0284L10.4747 39.7992H24.762L22.6252 36.0284H8.37975Z" fill="#988BE3"/>
<path d="M12.5695 43.1512L14.6644 46.922H28.9518L26.815 43.1512H12.5695Z" fill="#988BE3"/>
<path d="M33.8581 46.9639C27.234 35.6137 18.8543 20.9492 18.8543 20.9492C20.9492 18.8543 23.4631 17.1784 25.5581 12.1506C27.653 7.12276 33.2841 1.25698 35.7058 3.05176e-05C38.4544 1.67597 43.9934 6.28479 46.0883 12.5695C48.1832 18.8543 52.792 20.9492 52.792 20.9492C49.4401 26.815 37.9223 46.9262 37.9223 46.9262L37.6667 43.1554C37.6667 43.1554 48.3927 21.5777 38.7561 15.2929C36.6611 16.1309 36.2421 16.5499 32.8903 15.2929C28.2815 18.6448 26.6055 26.6055 34.0048 43.1554C34.0048 45.2503 33.8581 46.9639 33.8581 46.9639Z" fill="#988BE3"/>
</svg>
