<svg width="95" height="95" viewBox="0 0 95 95" fill="none" xmlns="http://www.w3.org/2000/svg">
<path d="M25.6816 36.5143C25.9355 33.0894 24.9626 31.5247 23.356 29.9601C32.0665 33.3849 29.9521 39.8969 29.0219 42.0534C28.0916 44.2098 28.0493 44.5481 28.0493 46.2394C25.8083 44.0407 25.4278 39.9392 25.6816 36.5143Z" fill="#E9A742"/>
<path d="M20.3809 46.8727C20.487 43.6414 19.4273 40.1452 23.0295 37.1259C21.3854 42.8996 24.7431 46.632 26.7572 48.8546C28.7714 51.0771 28.8409 51.98 29.0492 53.6816C29.2576 55.3833 29.6049 55.1402 30.1416 54.3762C30.6784 53.6122 30.6834 52.1994 30.1416 50.5063C29.5998 48.8131 30.5034 47.7075 31.3381 46.8727V64.3449C25.5362 65.0674 23.8771 65.784 20.3809 66.7904C20.3456 61.2283 20.296 49.4578 20.3809 46.8727Z" fill="#E9A742"/>
<path d="M34.3958 44.5298C34.4801 37.3372 32.3768 32.4164 29.2642 29.6824C35.5311 30.5237 36.1202 37.5478 36.2043 40.2397C36.2885 42.9316 37.4241 45.96 39.9057 46.0862C42.3873 46.2123 42.2611 39.9032 42.8079 37.2534C43.3547 34.6035 45.1633 30.4395 48.402 29.0515C46.1728 34.0988 45.5839 40.1135 45.5839 45.2029C45.5839 50.2923 45.5419 48.2733 45.5839 63.247C43.537 63.247 38.4336 63.3396 34.3958 63.7097C34.3678 59.7139 34.3285 50.2838 34.3958 44.5298Z" fill="#E9A742"/>
<path d="M59.8435 63.8201C57.2757 63.6184 51.4628 63.2069 48.7524 63.1746V45.9936C48.7524 38.9356 50.0834 36.3544 51.3337 33.0471C50.7691 40.6697 52.3017 43.009 54.4796 43.009C56.6574 43.009 56.3348 38.9356 55.4878 34.9831C58.5933 37.1207 59.8435 41.7587 59.8435 50.1073V63.8201Z" fill="#E9A742"/>
<path d="M74.0001 66.6836C71.9836 66.119 66.918 64.8204 62.7882 64.1429V45.3888C62.7882 38.0085 59.6422 34.3782 53.3909 27.8849C61.6185 27.9656 66.8212 37.0804 67.2245 38.2904C67.6278 39.5003 68.8781 42.5252 70.4107 42.5655C71.9433 42.6058 72.0643 42.2429 72.5079 37.2822C72.7499 38.2098 74.0001 40.7507 74.0001 45.3888V66.6836Z" fill="#E9A742"/>
</svg>
