<svg width="44" height="55" viewBox="0 0 44 55" fill="none" xmlns="http://www.w3.org/2000/svg">
<path d="M21.3908 9.15687V8.29462H23.5796V9.2232H26.697L22.452 14.9937L18.2734 9.15687H21.3908Z" fill="#04A33F"/>
<path d="M22.452 18.3764L27.3603 11.6773L27.2276 32.2389L22.3194 39.2696L17.4111 32.2389V11.6773L22.452 18.3764Z" fill="#04A33F"/>
<path d="M14.3601 24.3459C13.4979 23.9479 13.5642 21.2285 13.5642 18.7081C12.6356 19.0397 11.1764 22.0908 11.1764 25.7388C11.1764 25.8051 10.9774 25.7388 10.0488 25.7388C10.4468 24.1469 9.18655 22.6214 7.79367 22.6214C6.40079 22.6214 4.94158 23.4837 5.4722 26.2694C3.83612 27.0874 0.563965 29.7848 0.563965 34.0297C0.563965 39.3359 5.67119 42.3207 9.45186 42.3207C9.45186 46.632 12.4366 54.4586 22.651 54.4586C32.8655 54.4586 35.3196 45.9024 35.3196 42.3207C37.5084 42.2543 41.3554 41.3258 43.2126 37.7441C45.0698 34.1624 43.6105 28.1929 39.1666 26.4684C39.6972 25.0755 39.8299 22.953 37.5084 22.6877C35.1869 22.4224 34.9216 24.2796 34.9216 25.6725H33.5288C33.993 22.5551 32.7992 20.9632 31.3399 18.7081C31.6053 21.8918 30.942 23.8816 30.4777 24.3459V34.0297L22.3857 45.2391L14.3601 34.693V24.3459Z" fill="#04A33F"/>
<circle cx="7.39571" cy="19.5704" r="1.06124" fill="#04A33F"/>
<circle cx="36.9777" cy="19.5704" r="1.06124" fill="#04A33F"/>
<path fill-rule="evenodd" clip-rule="evenodd" d="M22.1201 1.06496C22.1201 1.3065 22.0208 1.52484 21.8608 1.68138C21.9454 1.66862 22.032 1.66201 22.1201 1.66201C23.0726 1.66201 23.8446 2.4341 23.8446 3.38653C23.8446 4.33895 23.0726 5.11104 22.1201 5.11104C21.1677 5.11104 20.3956 4.33895 20.3956 3.38653C20.3956 2.77093 20.7182 2.23066 21.2035 1.92553C20.7526 1.89747 20.3956 1.5229 20.3956 1.06496C20.3956 0.588744 20.7817 0.202698 21.2579 0.202698C21.7341 0.202698 22.1201 0.588744 22.1201 1.06496ZM20.3293 6.17217C20.5857 6.17217 20.7936 5.9643 20.7936 5.70787C20.7936 5.45145 20.5857 5.24358 20.3293 5.24358C20.0729 5.24358 19.865 5.45145 19.865 5.70787C19.865 5.9643 20.0729 6.17217 20.3293 6.17217Z" fill="#04A33F"/>
</svg>
