<svg width="41" height="50" viewBox="0 0 41 50" fill="none" xmlns="http://www.w3.org/2000/svg">
<path d="M23.5821 5.28501C22.4594 5.08087 19.2953 4.26434 20.0098 0C20.0098 0 19.7036 0.0796118 11.2321 6.50981C2.76055 12.94 0.00474915 18.9619 0.00474915 25.3921C-0.301451 40.3959 14.2941 44.3765 16.2333 44.7848C18.1726 45.193 19.6015 45.7034 20.0098 50.0004C20.0098 50.0004 22.9697 47.8468 31.1351 41.6207C39.3004 35.3947 40.0149 29.0665 40.0149 24.7797C40.0149 9.46974 24.7049 5.48914 23.5821 5.28501ZM28.8896 23.657C29.9103 27.1273 29.502 31.5161 23.8883 36.2112C23.8883 36.2112 26.0317 32.7409 20.4181 33.9657C14.8044 35.1905 10.2114 30.3934 8.88454 28.5562C10.8238 29.1686 11.9465 28.9645 11.3341 25.9025C10.4155 21.1053 11.4362 18.0433 16.3354 13.7565C15.2127 17.0227 17.6623 16.4103 19.7036 16.002C27.8689 15.5937 30.6247 19.5743 31.3392 21.3095C30.5227 20.595 27.8689 20.1867 28.8896 23.657Z" fill="#988BE3"/>
</svg>
