<svg width="30" height="56" viewBox="0 0 30 56" fill="none" xmlns="http://www.w3.org/2000/svg">
<path fill-rule="evenodd" clip-rule="evenodd" d="M6.7188 20.5212C6.6845 20.7832 6.6499 21.0466 6.6148 21.3119C5.8161 27.335 5.1838 29.8308 4.08571 29.8308C2.98751 29.8308 2.6215 27.6345 2.8877 25.3051C1.2371 28.6062 1.77851 32.3599 2.25541 33.8241C-3.76769 44.4062 4.7179 55.787 15.2002 55.787C25.6825 55.787 34.1314 44.1934 27.8436 33.8241C27.8436 33.4989 27.8744 33.039 27.9111 32.4907C28.0587 30.2878 28.302 26.6576 27.027 24.598C26.5858 31.0262 23.2633 29.0081 23.1649 26.301C23.1514 25.931 23.1629 25.4836 23.1761 24.9694C23.2594 21.7214 23.4111 15.8074 17.7799 9.88545C19.7998 19.3119 20.2207 24.8247 15.8441 24.9509C11.4676 25.0772 10.0786 14.558 13.4032 0.0810547C8.1226 9.81525 7.4643 14.836 6.7188 20.5212ZM16.3734 38.9716C15.4263 43.6595 15.0562 45.4912 12.1005 43.5097C12.9836 47.6416 11.4174 49.8742 9.1182 47.3251C3.8358 41.2662 7.7929 32.5949 14.8126 32.5949C21.8322 32.5949 26.7873 40.2048 20.9375 47.3251C17.3933 50.6602 16.1275 45.3352 16.3991 38.8446L16.3734 38.9716Z" fill="#E9A742"/>
</svg>
