<svg width="45" height="46" viewBox="0 0 45 46" fill="none" xmlns="http://www.w3.org/2000/svg">
<path d="M0.862305 46.0001V25.347H6.96435C7.3555 25.9729 8.6072 27.5532 10.4848 28.8675C10.9541 35.4389 17.7603 41.5409 23.1582 42.0103C23.8623 43.4185 28.3215 45.296 30.4337 46.0001H0.862305Z" fill="#04A33F"/>
<path d="M44.7498 46.0001V25.347H39.1172C38.9608 26.9117 38.0376 31.0266 35.5968 34.9695C32.5458 39.8981 34.8927 42.245 38.6478 46.0001H44.7498Z" fill="#04A33F"/>
<path d="M10.25 11.0307C11.6582 8.21436 11.1888 6.33681 9.31121 3.75517C16.8215 2.5817 16.1172 10.0919 13.3009 14.3164C10.4846 18.5409 10.4847 21.1225 10.25 25.5817C5.08672 19.4797 8.84183 13.847 10.25 11.0307Z" fill="#04A33F"/>
<path d="M18.9337 8.21435C19.6378 3.75516 18.4643 2.58169 15.8827 6.10352e-05C35.597 6.10352e-05 33.2499 11.2654 32.3112 17.3674C29.2601 15.0205 24.5663 15.2552 20.8112 15.9592C26.4438 19.245 23.8622 24.6429 22.454 27.4592C21.0458 30.2756 20.1071 32.8572 22.2193 38.4899C21.0458 38.0205 15.8827 35.6735 14.0051 29.3368C12.1276 23.0001 18.2296 12.6735 18.9337 8.21435Z" fill="#04A33F"/>
<path d="M25.9744 27.2246C28.3214 24.1735 27.6173 20.6531 25.505 18.7756C39.1173 18.7756 35.1275 30.2756 32.5459 33.0919C29.9642 35.9082 30.6683 39.4286 32.5459 42.4797C19.8724 40.3674 23.6275 30.2756 25.9744 27.2246Z" fill="#04A33F"/>
</svg>
