<svg width="84" height="113" viewBox="0 0 84 113" fill="none" xmlns="http://www.w3.org/2000/svg">
<path d="M11.592 10.8813L41.5919 10.8812L71.5918 10.8812L71.5918 51.5412L11.5918 92.3326L11.592 59.5949L11.592 10.8813Z" fill="url(#paint0_linear_376_15670)" fill-opacity="0.2" stroke="url(#paint1_linear_376_15670)" stroke-opacity="0.9"/>
<path d="M0.740943 0.536658L41.6829 0.536622L82.6249 0.536624L82.6249 56.0267L0.740725 111.696L0.740946 67.0179L0.740943 0.536658Z" stroke="url(#paint2_linear_376_15670)"/>
<path d="M21.2266 26.2349H36.9686C37.2406 26.2349 37.3766 26.3822 37.3766 26.6769V49.6269C37.3766 49.9216 37.2406 50.0689 36.9686 50.0689H33.4666C33.1946 50.0689 33.0586 49.9216 33.0586 49.6269V30.5529H24.6266C24.1506 30.5529 23.7766 30.3716 23.5046 30.0089L20.9886 26.7449C20.898 26.6316 20.8866 26.5182 20.9546 26.4049C21.0226 26.2916 21.1133 26.2349 21.2266 26.2349ZM42.6644 26.2349H59.4944C59.6077 26.2349 59.6984 26.2802 59.7664 26.3709C59.8571 26.4389 59.9024 26.5296 59.9024 26.6429V49.5929C59.9024 49.7062 59.8571 49.8082 59.7664 49.8989C59.6984 49.9896 59.6077 50.0349 59.4944 50.0349H49.9404C49.4644 50.0349 49.0904 49.8422 48.8184 49.4569L46.3024 46.1929C46.2344 46.0796 46.2231 45.9662 46.2684 45.8529C46.3364 45.7396 46.4271 45.6829 46.5404 45.6829H55.5504V30.5529H46.6764L53.2044 39.0189C53.2951 39.1322 53.3064 39.2456 53.2384 39.3589C53.1704 39.4722 53.0797 39.5289 52.9664 39.5289H48.6484C48.1724 39.5289 47.7984 39.3362 47.5264 38.9509L42.5624 32.4909C42.3584 32.2416 42.2564 31.9582 42.2564 31.6409V26.6429C42.2564 26.5296 42.2904 26.4389 42.3584 26.3709C42.4491 26.2802 42.5511 26.2349 42.6644 26.2349Z" fill="#04BC49"/>
<defs>
<linearGradient id="paint0_linear_376_15670" x1="41.5918" y1="10.8812" x2="41.5918" y2="92.3326" gradientUnits="userSpaceOnUse">
<stop stop-color="#029D38" stop-opacity="0.39"/>
<stop offset="1" stop-color="#06A73D" stop-opacity="0.03"/>
</linearGradient>
<linearGradient id="paint1_linear_376_15670" x1="90.4307" y1="121.948" x2="43.2117" y2="124.094" gradientUnits="userSpaceOnUse">
<stop stop-color="#01AB3F"/>
<stop offset="0.347042" stop-color="#01AB3F"/>
<stop offset="0.930675" stop-color="#01AB3F" stop-opacity="0.4"/>
</linearGradient>
<linearGradient id="paint2_linear_376_15670" x1="36" y1="93.5" x2="50.4957" y2="-8.79614" gradientUnits="userSpaceOnUse">
<stop offset="0.00269252" stop-color="#01AB3F" stop-opacity="0"/>
<stop offset="1" stop-color="#01AB3F" stop-opacity="0.16"/>
</linearGradient>
</defs>
</svg>
