<svg width="84" height="113" viewBox="0 0 84 113" fill="none" xmlns="http://www.w3.org/2000/svg">
<path d="M11.5918 10.8813L41.5918 10.8812L71.5917 10.8812L71.5917 51.5412L11.5917 92.3326L11.5918 59.5949L11.5918 10.8813Z" fill="url(#paint0_linear_348_15559)" fill-opacity="0.5" stroke="url(#paint1_linear_348_15559)" stroke-opacity="0.6"/>
<path d="M0.740943 0.536658L41.6829 0.536622L82.6249 0.536624L82.6249 56.0267L0.740725 111.696L0.740946 67.0179L0.740943 0.536658Z" stroke="url(#paint2_linear_348_15559)" stroke-opacity="0.19"/>
<path d="M21.2267 26.2349H36.9687C37.2407 26.2349 37.3767 26.3822 37.3767 26.6769V49.6269C37.3767 49.9216 37.2407 50.0689 36.9687 50.0689H33.4667C33.1947 50.0689 33.0587 49.9216 33.0587 49.6269V30.5529H24.6267C24.1507 30.5529 23.7767 30.3716 23.5047 30.0089L20.9887 26.7449C20.8981 26.6316 20.8867 26.5182 20.9547 26.4049C21.0227 26.2916 21.1134 26.2349 21.2267 26.2349ZM42.6645 26.2349H59.4945C59.6079 26.2349 59.6985 26.2802 59.7665 26.3709C59.8572 26.4389 59.9025 26.5296 59.9025 26.6429V49.5929C59.9025 49.7062 59.8572 49.8082 59.7665 49.8989C59.6985 49.9896 59.6079 50.0349 59.4945 50.0349H49.9405C49.4645 50.0349 49.0905 49.8422 48.8185 49.4569L46.3025 46.1929C46.2345 46.0796 46.2232 45.9662 46.2685 45.8529C46.3365 45.7396 46.4272 45.6829 46.5405 45.6829H55.5505V30.5529H46.6765L53.2045 39.0189C53.2952 39.1322 53.3065 39.2456 53.2385 39.3589C53.1705 39.4722 53.0799 39.5289 52.9665 39.5289H48.6485C48.1725 39.5289 47.7985 39.3362 47.5265 38.9509L42.5625 32.4909C42.3585 32.2416 42.2565 31.9582 42.2565 31.6409V26.6429C42.2565 26.5296 42.2905 26.4389 42.3585 26.3709C42.4492 26.2802 42.5512 26.2349 42.6645 26.2349Z" fill="#EDAA44"/>
<defs>
<linearGradient id="paint0_linear_348_15559" x1="41.5918" y1="-2.97948" x2="41.5918" y2="59.5951" gradientUnits="userSpaceOnUse">
<stop stop-color="#3C3125"/>
<stop offset="1" stop-color="#695B4A"/>
</linearGradient>
<linearGradient id="paint1_linear_348_15559" x1="41.4152" y1="59.4721" x2="81.3332" y2="2.16033" gradientUnits="userSpaceOnUse">
<stop stop-color="#EAA641" stop-opacity="0.26"/>
<stop offset="1" stop-color="#F0AC47"/>
</linearGradient>
<linearGradient id="paint2_linear_348_15559" x1="41.4419" y1="66.8503" x2="95.9194" y2="-11.3651" gradientUnits="userSpaceOnUse">
<stop stop-color="#9D8EE8" stop-opacity="0.4"/>
<stop offset="0.765625" stop-color="white" stop-opacity="0.4"/>
</linearGradient>
</defs>
</svg>
