<svg width="49" height="43" viewBox="0 0 49 43" fill="none" xmlns="http://www.w3.org/2000/svg">
<path d="M7.5634 20.5631C3.80975 23.5123 -2.71437 29.2322 1.218 42.4593C1.75421 29.7686 10.7808 24.5847 18.3775 23.8698C18.735 22.0823 21.0586 18.5074 26.421 15.8263V12.877H31.6939V16.5413C34.5538 16.8987 38.3968 22.2611 40.2736 25.0316C45.0997 25.3891 44.206 30.5727 40.2736 31.0195C40.0055 31.5558 38.9688 33.3075 36.9669 36.0244C49.3896 32.7176 50.2833 17.8818 46.0828 9.39149C45.1891 12.5195 39.1118 13.86 37.4137 6.79964C35.7157 -0.260757 31.1577 -0.528789 26.8678 0.364932C27.8509 7.69344 22.8461 6.88919 20.6118 5.72735C18.3775 4.56551 10.1552 2.59929 1.84363 11.3578C10.6021 9.39157 11.3171 17.6138 7.5634 20.5631Z" fill="#988BE3"/>
<path fill-rule="evenodd" clip-rule="evenodd" d="M28.8566 34.6133C32.4445 34.6133 35.3531 31.7047 35.3531 28.1167C35.3531 24.5287 32.4445 21.6201 28.8566 21.6201C25.2686 21.6201 22.36 24.5287 22.36 28.1167C22.36 31.7047 25.2686 34.6133 28.8566 34.6133ZM28.8566 31.2174C30.569 31.2174 31.9572 29.8292 31.9572 28.1168C31.9572 26.4043 30.569 25.0161 28.8566 25.0161C27.1441 25.0161 25.7559 26.4043 25.7559 28.1168C25.7559 29.8292 27.1441 31.2174 28.8566 31.2174Z" fill="#988BE3"/>
</svg>
