<svg width="48" height="66" viewBox="0 0 48 66" fill="none" xmlns="http://www.w3.org/2000/svg">
<path fill-rule="evenodd" clip-rule="evenodd" d="M44.333 0.573242L33.7896 14.4399C33.6611 14.5798 33.4988 14.7733 33.3092 14.9992C31.5844 17.0557 27.6028 21.8027 26.2261 13.3703C25.0037 5.88304 24.6217 3.73114 24.5835 3.59104L23.2847 14.4399C22.6353 17.6869 19.4647 20.2463 15.9503 17.7251C13.6888 16.2582 12.7924 15.7132 12.6268 15.6241C13.6964 17.2412 15.4459 21.1325 13.8873 23.7607C12.2139 26.5825 11.1042 26.5296 9.61395 26.4585C9.36925 26.4469 9.11425 26.4347 8.84485 26.4347H0.249756L9.34136 29.9491C9.43216 29.9912 9.52506 30.0328 9.61916 30.0749C10.635 30.5294 11.7927 31.0473 11.8627 33.0051C11.9228 34.6901 13.4286 36.9675 14.2894 38.2694C14.5215 38.6204 14.7067 38.9005 14.8041 39.0789C15.2625 39.9193 15.8737 41.371 15.3389 43.3956C14.911 44.618 14.6513 45.2546 14.5749 45.4202C15.1097 45.1146 16.439 44.3506 17.4781 43.7394C18.7769 42.9754 22.5205 41.5238 22.8643 45.8022C23.1393 49.2249 24.1249 60.4455 24.5833 65.628L26.4933 45.4202C26.7835 43.7111 27.4004 43.4992 29.0103 42.9461C29.3075 42.844 29.6386 42.7303 30.0077 42.5934C32.3761 41.7148 34.9355 39.4609 35.5085 38.1239C36.0815 36.7869 36.5399 36.5195 39.7487 37.1689C42.3158 37.6885 46.3192 38.2513 48 38.4677L39.2521 33.5781C37.8074 32.5417 37.7829 31.9184 37.7137 30.1584C37.6987 29.7778 37.6817 29.344 37.6477 28.8413C37.4567 26.0145 35.9669 23.7225 35.0119 22.8821C34.0569 22.0417 33.8659 19.5969 35.2029 17.7251C36.2725 16.2276 41.7353 5.66664 44.333 0.573242ZM24.7947 38.1602C28.903 38.1602 32.2334 34.8297 32.2334 30.7214C32.2334 26.6131 28.903 23.2826 24.7947 23.2826C20.6863 23.2826 17.3559 26.6131 17.3559 30.7214C17.3559 34.8297 20.6863 38.1602 24.7947 38.1602Z" fill="#E9A742"/>
</svg>
