<svg width="36" height="43" viewBox="0 0 36 43" fill="none" xmlns="http://www.w3.org/2000/svg">
<path d="M0.217013 18.8017C-0.830295 28.2025 1.61342 36.5588 14.1811 40.2146C13.2502 37.3132 11.2486 31.1272 10.6901 29.5952C9.99187 27.6802 9.11911 25.0689 10.6901 22.1094C11.5046 21.0068 14.0764 17.5482 17.8467 12.5345C19.1849 14.3914 22.2105 18.558 23.6069 20.3685C25.3524 22.6316 26.2251 24.1984 25.3524 27.8543C24.9451 29.3631 23.3974 34.5045 20.4649 43.0001C20.7559 42.884 22.5246 41.7118 27.2724 37.9515C35.6509 31.5102 36 24.8948 36 21.413C36 9.40087 23.4323 5.22273 21.6868 4.87456C19.9413 4.52638 17.8467 3.65593 17.4976 6.10352e-05C16.9739 0.406269 14.4953 2.33285 8.77001 6.78954C1.61341 12.3604 0.391547 17.2349 0.217013 18.8017Z" fill="#04A33F"/>
<path d="M13.2012 27.8001C12.1839 24.2462 15.2359 22.0462 17.6097 19.0001C22.3572 24.5847 22.3572 26.1078 21.679 28.477C21.0007 30.8462 19.9834 33.7231 17.6096 41.0001C16.4793 37.7847 14.0151 30.6431 13.2012 27.8001Z" fill="#04A33F"/>
</svg>
