<svg width="52" height="52" viewBox="0 0 52 52" fill="none" xmlns="http://www.w3.org/2000/svg">
<path fill-rule="evenodd" clip-rule="evenodd" d="M51.2993 26.1993C51.2993 26.3631 51.2978 26.5266 51.2947 26.6896L26.2798 6.59479C18.8349 12.453 5.10437 23.2536 0.567278 26.8105C0.562474 26.6074 0.560059 26.4036 0.560059 26.1993C0.560059 12.188 11.9184 0.829651 25.9297 0.829651C39.9409 0.829651 51.2993 12.188 51.2993 26.1993ZM26.2798 18.7799L48.9537 36.868C47.7364 39.4906 46.0842 41.8703 44.0898 43.9145L26.2798 29.6075C21.4031 33.4449 13.8294 39.4029 7.90923 44.0565C5.9397 42.0691 4.29664 39.7576 3.06714 37.2092L26.2798 18.7799ZM16.3319 49.6905C19.2926 50.9015 22.5332 51.5689 25.9297 51.5689C29.4904 51.5689 32.8799 50.8353 35.9551 49.5111L26.2798 41.7926L16.3319 49.6905Z" fill="#04BC49"/>
</svg>
