<svg width="51" height="51" viewBox="0 0 51 51" fill="none" xmlns="http://www.w3.org/2000/svg">
<path fill-rule="evenodd" clip-rule="evenodd" d="M50.4644 25.3669C50.4644 30.5562 48.8833 35.3762 46.1766 39.3715L31.8714 25.2474L46.0056 11.1132C48.8166 15.1565 50.4644 20.0693 50.4644 25.3669ZM39.8328 4.90595C35.7678 2.0461 30.8122 0.366943 25.4644 0.366943C20.1609 0.366943 15.2431 2.01838 11.1972 4.83507L25.6419 19.0969L39.8328 4.90595ZM19.4518 25.287L4.99377 11.0121C2.13976 15.0745 0.464355 20.0251 0.464355 25.3669C0.464355 30.7148 2.14351 35.6704 5.00336 39.7354L19.4518 25.287ZM25.6812 31.4376L11.2106 45.9082C15.254 48.7192 20.1667 50.3669 25.4644 50.3669C30.9205 50.3669 35.9684 48.6191 40.0787 45.6527L25.6812 31.4376Z" fill="#E7A542"/>
</svg>
