<svg width="51" height="50" viewBox="0 0 51 50" fill="none" xmlns="http://www.w3.org/2000/svg">
<g clip-path="url(#clip0_1_16)">
<path d="M4.28821 7.32486C1.41572 10.6077 -2.27748 13.4802 1.82608 20.4562C6.33999 27.4323 17.4196 44.6672 17.4196 44.6672C17.0092 38.9222 19.4714 38.9222 21.1128 41.7947C22.7542 44.6672 25.2164 49.5915 25.2164 49.5915L30.1406 40.974C30.9613 39.7429 33.8338 38.1015 33.0131 44.2569C38.7581 35.6394 49.017 19.6355 49.017 19.6355C51.0688 16.3527 52.505 13.275 46.5795 7.32486C46.9406 10.1973 45.1186 14.5061 41.4254 15.3268C37.7322 16.1475 37.3218 16.1475 35.2701 19.4303C33.2183 22.7132 25.401 35.3439 25.401 35.3439L14.3624 17.7889C14.3624 17.7889 13.9521 16.1475 10.2589 15.3268C6.56569 14.5061 3.6932 12.8647 4.28821 7.32486Z" fill="#988BE3"/>
<path d="M23.8006 27.6374C18.0556 18.6096 14.3624 12.0439 14.3624 12.0439C16.8246 10.4025 18.0556 9.83211 19.0815 6.63133C20.1074 3.43056 23.7391 -0.13543 25.401 -1.26671e-05C27.063 0.135405 29.956 3.0161 31.187 5.88859C32.4181 8.76108 33.6492 10.8129 36.5216 12.0439C34.0595 15.7371 26.6731 27.6374 26.6731 27.6374L26.5377 25.442C28.7249 21.4821 32.0077 11.2232 27.0835 9.17143C25.8524 9.58179 23.3903 9.17143 23.3903 9.17143C20.5178 12.4543 19.2867 14.9164 24.211 25.5857V28.0478L23.8006 27.6374Z" fill="#988BE3"/>
</g>
<defs>
<clipPath id="clip0_1_16">
<rect width="50.802" height="49.5915" fill="white"/>
</clipPath>
</defs>
</svg>
