<svg width="95" height="95" viewBox="0 0 95 95" fill="none" xmlns="http://www.w3.org/2000/svg">
<path d="M46.3037 66.4893C31.8227 55.0291 31.3215 37.843 34.7412 27.9941C34.7869 27.8614 34.7412 27.582 34.5612 27.7815C30.1715 30.9297 28.93 40.5071 28.7083 41.6156C28.4866 42.7241 28.7526 44.675 27.5111 44.675C26.2696 44.675 25.9038 43.3553 24.7781 38.6346C24.5603 39.3124 24.1535 41.9391 24.2697 47.0229C24.415 54.9392 32.6452 60.0605 33.5967 60.5795C34.5481 61.0985 35.4141 61.4529 34.8105 62.5228C34.207 63.5928 32.6981 63.5928 31.7379 63.5928C31.491 63.5928 32.8901 63.6202 30.5308 63.5928C31.0795 64.6627 36.2371 66.4893 38.9531 66.4893H46.3037Z" fill="#E9A742"/>
<path d="M47.9456 66.4893C62.4267 55.0291 62.9279 37.843 59.5082 27.9941C59.4625 27.8614 59.5082 27.582 59.6882 27.7815C64.0779 30.9297 65.3194 40.5071 65.5411 41.6156C65.7628 42.7241 65.4967 44.675 66.7382 44.675C67.9798 44.675 68.3455 43.3553 69.4712 38.6346C69.6891 39.3124 70.0958 41.9391 69.9796 47.0229C69.8344 54.9392 61.6041 60.0605 60.6527 60.5795C59.7012 61.0985 58.8353 61.4529 59.4388 62.5228C60.0424 63.5928 61.5513 63.5928 62.5115 63.5928C62.7584 63.5928 61.3593 63.6202 63.7186 63.5928C63.1699 64.6627 58.0123 66.4893 55.2963 66.4893H47.9456Z" fill="#E9A742"/>
<path d="M46.1057 36.1125C46.4266 35.239 47.662 35.239 47.9829 36.1125L48.4679 37.4324C48.5691 37.7079 48.7862 37.925 49.0617 38.0262L50.3816 38.5112C51.2551 38.8321 51.2551 40.0675 50.3816 40.3885L49.0617 40.8734C48.7862 40.9747 48.5691 41.1917 48.4679 41.4672L47.9829 42.7871C47.662 43.6606 46.4266 43.6606 46.1057 42.7871L45.6207 41.4672C45.5195 41.1917 45.3024 40.9747 45.0269 40.8734L43.707 40.3885C42.8335 40.0675 42.8335 38.8321 43.707 38.5112L45.0269 38.0262C45.3024 37.925 45.5195 37.7079 45.6207 37.4324L46.1057 36.1125Z" fill="#E9A742"/>
<path d="M39.4992 53.0753C40.4384 54.0464 43.2416 56.9134 46.9407 60.6126C48.225 59.3601 51.4362 56.2123 54.0074 53.6411C58.3983 49.2276 51.563 43.7049 48.0095 48.2091C46.9231 49.5218 46.7646 49.1144 45.9498 48.2091C41.8531 43.5465 36.5003 50.0763 39.4992 53.0753Z" fill="#E9A742"/>
</svg>
