<svg width="55" height="47" viewBox="0 0 55 47" fill="none" xmlns="http://www.w3.org/2000/svg">
<path d="M24.1802 14.4911L14.3289 6.10352e-05L25.4514 7.56338H29.8368L40.9594 6.10352e-05L30.2182 14.4911H24.1802Z" fill="#04A33F"/>
<path d="M37.0641 23.1254L54.5847 23.3906L42.0033 28.1468L39.4831 31.7358L39.2812 45.1848L33.5944 28.0668L37.0641 23.1254Z" fill="#04A33F"/>
<path d="M21.7806 27.7831L16.55 44.5068L15.5631 31.0926L12.8377 27.6568L1.84203e-05 23.6434L18.0282 23.0527L21.7806 27.7831Z" fill="#04A33F"/>
<path d="M22.5281 22.2451L25.3882 17.7325H30.2821L32.8244 22.2451L30.155 26.8212H25.3882L22.5281 22.2451Z" fill="#04A33F"/>
<path d="M8.35449 20.6561C8.35449 18.241 9.43497 11.8852 15.6636 6.8642L17.6974 9.34293C15.6 11.1861 11.4052 16.0292 11.4052 20.6561H8.35449Z" fill="#04A33F"/>
<path d="M46.6798 20.6561C46.6798 18.241 45.5993 11.8852 39.3707 6.8642L37.3369 9.34293C39.4343 11.1861 43.6291 16.0292 43.6291 20.6561H46.6798Z" fill="#04A33F"/>
<path d="M19.8147 40.1875C21.939 41.3364 28.0435 43.4095 35.4231 40.3194L34.2103 37.3513C31.5913 38.3193 25.3358 39.7051 21.2659 37.504L19.8147 40.1875Z" fill="#04A33F"/>
</svg>
